# xmcd
#
# Track frame offsets:
#  182
#  17985
#  32810
#  42267
#  59655
#  77477
#  87160
#  96812
#  116015
#  133090
#  146102
#  161495
#  180782
#  200960
#
# Disc length: 2754 seconds
#
# Revision: 0
# Processed by: cddbd v1.5.1PL2 Copyright (c) Steve Scherf et al.
# Submitted via: Collectorz.com_Music_Collector 6.11
#
DISCID=c10ac00e
DTITLE=CeDell Davis - Feel Like Doin' Something Wrong
DYEAR=1998
DGENRE=Blues
TTITLE0=I Don't Know Why
TTITLE1=Every Day Every Way
TTITLE2=She's Got The Devil In Her
TTITLE3=John Lee Hooker - Boogie Chillen No.2
TTITLE4=Baby, I Love You So
TTITLE5=If You Like Fat Women
TTITLE6=Guitar Boogie
TTITLE7=Falling Rain Blues
TTITLE8=Leroy Carr - In The Evening
TTITLE9=Sit Down On My Knee
TTITLE10=Got To Be Moving On
TTITLE11=Lowell Fulson - Reconsider Baby
TTITLE12=Traditional - Murder My Baby
TTITLE13=Steve Cropper - Al Jackson Jr. - Booker T. Jones - Lewie Steinberg - Green Onions
EXTD=
EXTT0=
EXTT1=
EXTT2=
EXTT3=
EXTT4=
EXTT5=
EXTT6=
EXTT7=
EXTT8=
EXTT9=
EXTT10=
EXTT11=
EXTT12=
EXTT13=
PLAYORDER=
